HIERARCHY
ROOT hip
{
  OFFSET 0 0 0
  CHANNELS 6 Xposition Yposition Zposition Zrotation Yrotation Xrotation
  JOINT abdomen
  {
    OFFSET 0 20.6881 -0.73152
    CHANNELS 3 Zrotation Xrotation Yrotation
    JOINT chest
    {
      OFFSET 0 11.7043 -0.48768
      CHANNELS 3 Zrotation Xrotation Yrotation
      JOINT neck
      {
        OFFSET 0 22.1894 -2.19456
        CHANNELS 3 Zrotation Xrotation Yrotation
        JOINT head
        {
          OFFSET -0.24384 7.07133 1.2192
          CHANNELS 3 Zrotation Xrotation Yrotation
          JOINT leftEye
          {
            OFFSET 4.14528 8.04674 8.04672
            CHANNELS 3 Zrotation Xrotation Yrotation
            End Site
            {
              OFFSET 1 0 0
            }
          }
          JOINT rightEye
          {
            OFFSET -3.6576 8.04674 8.04672
            CHANNELS 3 Zrotation Xrotation Yrotation
            End Site
            {
              OFFSET 1 0 0
            }
          }
        }
      }
      JOINT rCollar
      {
        OFFSET -2.68224 19.2634 -4.8768
        CHANNELS 3 Zrotation Xrotation Yrotation
        JOINT rShldr
        {
          OFFSET -8.77824 -1.95073 1.46304
          CHANNELS 3 Zrotation Xrotation Yrotation
          JOINT rForeArm
          {
            OFFSET -28.1742 -1.7115 0.48768
            CHANNELS 3 Zrotation Xrotation Yrotation
            JOINT rHand
            {
              OFFSET -22.5879 0.773209 7.07136
              CHANNELS 3 Zrotation Xrotation Yrotation
              JOINT rThumb1
              {
                OFFSET -1.2192 -0.487915 3.41376
                CHANNELS 3 Zrotation Xrotation Yrotation
                JOINT rThumb2
                {
                  OFFSET -3.37035 -0.52449 3.41376
                  CHANNELS 3 Zrotation Xrotation Yrotation
                  End Site
                  {
                    OFFSET -1.78271 -1.18214 1.43049
                  }
                }
              }
              JOINT rIndex1
              {
                OFFSET -7.75947 0.938293 5.60832
                CHANNELS 3 Zrotation Xrotation Yrotation
                JOINT rIndex2
                {
                  OFFSET -2.54057 -0.884171 1.56538
                  CHANNELS 3 Zrotation Xrotation Yrotation
                  End Site
                  {
                    OFFSET -1.62519 -0.234802 1.16502
                  }
                }
              }
              JOINT rMid1
              {
                OFFSET -8.24714 1.18213 3.41376
                CHANNELS 3 Zrotation Xrotation Yrotation
                JOINT rMid2
                {
                  OFFSET -3.10165 -0.590103 1.0647
                  CHANNELS 3 Zrotation Xrotation Yrotation
                  End Site
                  {
                    OFFSET -2.48547 -0.328903 0.83742
                  }
                }
              }
              JOINT rRing1
              {
                OFFSET -8.82822 0.546677 1.51678
                CHANNELS 3 Zrotation Xrotation Yrotation
                JOINT rRing2
                {
                  OFFSET -2.60934 -0.819778 -0.0198488
                  CHANNELS 3 Zrotation Xrotation Yrotation
                  End Site
                  {
                    OFFSET -2.33842 -0.294052 0.168128
                  }
                }
              }
              JOINT rPinky1
              {
                OFFSET -8.27202 -0.0477905 -0.4584
                CHANNELS 3 Zrotation Xrotation Yrotation
                JOINT rPinky2
                {
                  OFFSET -1.82734 -0.647385 -0.700984
                  CHANNELS 3 Zrotation Xrotation Yrotation
                  End Site
                  {
                    OFFSET -1.69225 -0.51767 -0.607171
                  }
                }
              }
            }
          }
        }
      }
      JOINT lCollar
      {
        OFFSET 2.68224 19.2634 -4.8768
        CHANNELS 3 Zrotation Xrotation Yrotation
        JOINT lShldr
        {
          OFFSET 8.77824 -1.95073 1.46304
          CHANNELS 3 Zrotation Xrotation Yrotation
          JOINT lForeArm
          {
            OFFSET 28.1742 -1.7115 0.48768
            CHANNELS 3 Zrotation Xrotation Yrotation
            JOINT lHand
            {
              OFFSET 22.5879 0.773209 7.07136
              CHANNELS 3 Zrotation Xrotation Yrotation
              JOINT lThumb1
              {
                OFFSET 1.2192 -0.487915 3.41376
                CHANNELS 3 Zrotation Xrotation Yrotation
                JOINT lThumb2
                {
                  OFFSET 3.37035 -0.52449 3.41376
                  CHANNELS 3 Zrotation Xrotation Yrotation
                  End Site
                  {
                    OFFSET 1.78271 -1.18214 1.43049
                  }
                }
              }
              JOINT lIndex1
              {
                OFFSET 7.75947 0.938293 5.60832
                CHANNELS 3 Zrotation Xrotation Yrotation
                JOINT lIndex2
                {
                  OFFSET 2.54057 -0.884171 1.56538
                  CHANNELS 3 Zrotation Xrotation Yrotation
                  End Site
                  {
                    OFFSET 1.62519 -0.234802 1.16502
                  }
                }
              }
              JOINT lMid1
              {
                OFFSET 8.24714 1.18213 3.41376
                CHANNELS 3 Zrotation Xrotation Yrotation
                JOINT lMid2
                {
                  OFFSET 3.10165 -0.590103 1.0647
                  CHANNELS 3 Zrotation Xrotation Yrotation
                  End Site
                  {
                    OFFSET 2.48547 -0.328903 0.83742
                  }
                }
              }
              JOINT lRing1
              {
                OFFSET 8.82822 0.546677 1.51678
                CHANNELS 3 Zrotation Xrotation Yrotation
                JOINT lRing2
                {
                  OFFSET 2.60934 -0.819778 -0.0198488
                  CHANNELS 3 Zrotation Xrotation Yrotation
                  End Site
                  {
                    OFFSET 2.33842 -0.294052 0.168128
                  }
                }
              }
              JOINT lPinky1
              {
                OFFSET 8.27202 -0.0477905 -0.4584
                CHANNELS 3 Zrotation Xrotation Yrotation
                JOINT lPinky2
                {
                  OFFSET 1.82734 -0.647385 -0.700984
                  CHANNELS 3 Zrotation Xrotation Yrotation
                  End Site
                  {
                    OFFSET 1.69225 -0.51767 -0.607171
                  }
                }
              }
            }
          }
        }
      }
    }
  }
  JOINT rButtock
  {
    OFFSET -8.77824 4.35084 1.2192
    CHANNELS 3 Zrotation Xrotation Yrotation
    JOINT rThigh
    {
      OFFSET 0 -1.70687 -2.19456
      CHANNELS 3 Zrotation Xrotation Yrotation
      JOINT rShin
      {
        OFFSET 0 -36.8199 0.73152
        CHANNELS 3 Zrotation Xrotation Yrotation
        JOINT rFoot
        {
          OFFSET 0.73152 -45.1104 -5.12064
          CHANNELS 3 Zrotation Xrotation Yrotation
          End Site
          {
            OFFSET -1.1221 -3.69964 12.103
          }
        }
      }
    }
  }
  JOINT lButtock
  {
    OFFSET 8.77824 4.35084 1.2192
    CHANNELS 3 Zrotation Xrotation Yrotation
    JOINT lThigh
    {
      OFFSET 0 -1.70687 -2.19456
      CHANNELS 3 Zrotation Xrotation Yrotation
      JOINT lShin
      {
        OFFSET 0 -36.8199 0.73152
        CHANNELS 3 Zrotation Xrotation Yrotation
        JOINT lFoot
        {
          OFFSET -0.73152 -45.1104 -5.12064
          CHANNELS 3 Zrotation Xrotation Yrotation
          End Site
          {
            OFFSET 1.1221 -3.69964 12.103
          }
        }
      }
    }
  }
}
MOTION
Frames:	7
Frame Time:	0.03333
0.0 0.0 0.0 0.0 0.0 0.0 0.0 0.0 0.0 0.0 0.0 0.0 0.0 0.0 0.0 0.0 0.0 0.0 0.0 0.0 0.0 0.0 0.0 0.0 0.0 0.0 0.0 0.0 0.0 0.0 0.0 0.0 0.0 0.0 0.0 0.0 0.0 0.0 0.0 0.0 0.0 0.0 0.0 0.0 0.0 0.0 0.0 0.0 0.0 0.0 0.0 0.0 0.0 0.0 0.0 0.0 0.0 0.0 0.0 0.0 0.0 0.0 0.0 0.0 0.0 0.0 0.0 0.0 0.0 0.0 0.0 0.0 0.0 0.0 0.0 0.0 0.0 0.0 0.0 0.0 0.0 0.0 0.0 0.0 0.0 0.0 0.0 0.0 0.0 0.0 0.0 0.0 0.0 0.0 0.0 0.0 0.0 0.0 0.0 0.0 0.0 0.0 0.0 0.0 0.0 0.0 0.0 0.0 0.0 0.0 0.0 0.0 0.0 0.0 0.0 0.0 0.0 0.0 0.0 0.0 0.0 0.0 0.0 0.0 0.0 0.0 0.0 0.0 0.0 0.0 0.0 0.0
0.0729 63.6463 -0.3536 -0.762113 29.304197 -1.742469 1.988554 -1.117231 -178.072044 -9.224727 -4.579685 102.907702 -10.202629 -23.166122 -37.983379 -45.433421 16.519752 -87.524855 80.485586 1.263429 1.492779 -17.009794 -7.814392 49.095633 -42.971993 32.430498 147.078318 -139.742773 -24.699412 -171.522706 4.691404 41.061397 19.834516 137.079275 72.888539 -64.419726 16.03197 -46.699896 55.980963 79.106564 18.070206 -133.358185 -7.419139 -45.260964 -88.449486 54.121703 -64.117981 82.964205 -35.285705 26.116896 -95.484303 46.66318 62.046222 -23.917204 -98.996935 -7.871798 -106.186029 2.444218 1.959082 4.339288 81.456412 3.352812 -107.565093 -42.757922 -48.034457 38.917118 68.844042 -15.452309 -164.870128 144.882571 36.479043 -163.926861 0.966921 -33.966869 -151.032814 -82.766945 -59.649809 6.033927 121.689565 40.395528 -87.118814 65.167498 30.786431 65.486456 -177.135885 -61.360944 176.297035 -149.888165 56.983285 166.565735 31.178704 29.99983 60.625959 44.824742 -16.589225 175.913666 85.473192 16.667182 118.409333 83.111962 -6.497507 -114.57185 -48.280672 1.640248 96.153404 -171.262633 -61.695502 -165.655303 51.730061 29.53227 108.618267 -2.745212 59.317704 3.774948 -0.550666 3.27989 -169.69979 75.287466 11.69624 -92.908903 22.796559 -7.128273 104.595302 10.999337 17.398089 153.211984 -7.830838 1.977767 -141.014485 71.507182 40.366147 -87.43643
-1.1945000000000001 67.5804 0.5271 -83.890297 82.614758 -74.489617 5.245028 3.149277 70.940882 -4.491629 -2.446239 -69.248598 -17.238138 18.824451 -85.048885 39.039537 17.580286 84.854481 -48.65969 -11.558879 25.235596 -34.808446 14.696244 -44.724053 4.039131 19.689565 10.544979 54.72934 -4.415736 24.468574 40.780955 15.392039 88.493606 -18.349956 38.085666 5.609237 -137.773576 -8.491849 103.957849 -116.764882 -12.881538 89.403388 -172.63148 16.632305 153.555541 96.612227 70.695472 162.258778 -107.72473 -73.538899 -139.18774 19.291527 50.852621 16.720464 -83.52803 -37.50763 -80.682139 -128.97756 8.286278 164.297986 -2.092109 -8.598771 -48.091476 161.620381 -11.094509 127.660179 -7.532257 1.577031 16.216908 107.732969 -15.927271 -148.589049 174.054748 0.357506 103.284114 -7.996765 12.42557 8.666375 20.015065 13.303265 4.568164 14.222909 -22.388058 -63.10431 -178.160973 -39.637706 -139.453603 169.769271 32.315734 177.46966 171.33072 43.749207 -98.563302 -36.270998 -25.061148 -83.660603 -4.155445 -29.353477 28.524702 -60.340917 -57.197675 -69.590451 112.667851 19.677514 66.530634 -115.008443 35.030095 33.660045 -13.60075 -7.241657 -13.842157 10.081732 -15.518632 -21.01424 -3.324467 47.268496 94.231594 -6.678227 49.609398 -83.74307 24.097976 26.460717 38.903173 -67.577726 -50.174321 -169.536803 -60.122456 -26.621179 -92.862606 -107.145256 -4.914452 142.537136
-2.4240999999999997 57.9287 2.5478 -73.603676 75.042196 -64.772816 17.893451 11.671608 86.177636 -12.539126 10.021245 -61.008686 -3.719794 29.603705 -69.232901 42.507017 -1.93538 64.068395 -48.309583 -1.847547 4.118252 -45.435618 10.145683 -23.941829 4.723535 27.613904 -11.743954 -55.603186 46.38082 103.634679 -84.739982 51.928548 -58.067906 168.544756 -30.379594 139.952318 -130.980581 -13.400735 124.949249 -110.841061 -28.01156 136.233888 -161.526504 23.50192 106.762075 -154.089216 38.764501 11.607331 -1.012738 -54.634695 -6.39024 118.646281 -60.859811 83.191789 -145.539496 33.796575 157.44139 -22.547253 77.652925 40.526278 -159.313505 53.981188 -138.278222 -140.489527 63.833567 -163.000289 -11.495575 -34.480769 -5.523422 109.792574 -10.762433 -172.50126 160.491738 -12.61754 110.208814 0.370638 20.422046 -1.844116 177.938876 2.390239 -102.857344 121.698026 21.652008 -19.080291 174.182147 38.543559 -134.676956 173.621412 -58.165021 152.857175 -168.900253 -36.133572 -149.229445 48.613354 -39.940436 55.624236 119.649658 -3.825656 -170.974823 99.070233 -18.442095 -178.394238 -37.399802 -0.806468 36.611109 53.988023 5.837407 -68.089432 -0.252107 -16.570036 0.37157 -9.685183 3.972864 -68.90154 -44.461516 36.624441 92.6163 164.659628 -39.297446 52.116532 47.315146 40.551017 79.118665 -106.813946 -16.127296 105.186657 70.183751 -63.192042 115.485259 119.028431 -6.630744 -151.645977
-2.6561000000000003 58.395799999999994 3.4553000000000003 -58.668643 75.096046 -55.50041 11.629316 16.771942 103.505071 -6.820582 11.068827 -73.309288 -4.969417 31.890551 -77.008162 54.682599 2.425701 73.648367 -3.484603 -0.242289 7.952466 -45.55611 -6.178738 14.648374 11.638446 21.926893 -11.300708 -135.715876 -9.651427 139.051406 176.670927 13.906776 -73.98938 -1.209557 2.680493 -2.773103 -18.02563 66.361641 7.073468 174.004444 -61.972726 145.417521 -24.613768 0.030045 2.992826 -167.832866 72.121076 157.924662 -127.680749 36.999872 110.89353 -6.969052 75.624599 19.406851 26.45003 -71.325666 26.755379 -89.984186 -58.645519 -96.551817 -16.765966 34.468756 6.234711 -107.749246 1.93762 -144.360352 158.542562 -26.228556 -147.205161 -150.01651 31.27452 158.325455 -170.696679 11.90446 -65.93646 -162.108 -13.297763 -139.951033 -174.4477 2.225691 -94.374258 -35.251368 -69.055143 -49.826105 173.232096 17.206297 -119.893167 -134.859434 73.630968 -71.692492 151.583718 -3.519033 -132.323156 -17.963348 15.848999 -4.018531 136.407411 31.659163 -175.1284 78.140055 -7.307705 90.76904 109.527972 52.754903 155.889462 93.920347 38.121427 126.641545 -71.104961 52.762179 -58.089799 64.787761 32.855323 156.677036 59.206612 -10.936557 143.299434 148.618356 -35.444179 -113.113249 -36.9415 -24.499098 -22.584405 63.477408 -36.421694 142.383321 70.790953 -40.074282 36.500962 -175.822015 50.683751 132.996643
-1.855 61.616099999999996 3.2293000000000003 -58.95592 77.776648 -55.808736 7.452938 14.175857 -164.163722 9.85533 4.584154 -166.268004 -3.501597 24.404246 -61.45339 48.417548 -13.434551 61.977462 11.862012 4.162156 38.557711 -41.92182 -10.010988 25.756772 12.837911 61.15565 0.754097 -88.034403 41.100918 91.421905 -170.365375 -12.456846 -75.882766 5.412097 -12.245245 -1.142202 -168.200864 -40.941532 112.367364 -113.462536 1.353501 98.337154 -176.875395 -65.103186 119.160167 -0.578413 18.425407 53.73405 -154.437378 19.182922 133.152403 -153.84478 19.010312 157.438413 -90.060457 45.864997 69.755954 127.490294 -43.722302 87.028238 -16.380414 15.226616 -20.420607 -147.360538 -17.647081 -174.166478 -44.86414 -55.750786 -23.716918 78.486397 -59.903096 112.692002 160.072169 43.122538 103.89109 -8.318742 1.800913 8.699489 -14.565035 -13.894466 -21.853896 144.116583 -43.140608 -155.848818 160.673741 -3.992173 -105.384781 -143.727339 -32.585379 7.115768 17.334121 -23.661654 8.20717 -8.778751 1.776152 -22.856774 5.428872 2.393154 -0.848035 114.619601 10.540122 -94.890719 -29.654914 -18.584677 -21.930625 119.716262 -45.668462 22.966606 7.721086 -3.578971 -14.760149 -19.454598 2.915878 86.987772 59.610206 2.537007 150.131774 61.79032 -60.73249 156.893435 -73.45084 18.985953 -70.984681 119.308238 6.615707 121.41845 59.54164 -18.281793 -58.912563 82.917781 -53.902611 -45.922191
-0.0541 62.453599999999994 2.5076 -68.115645 78.762291 -64.019962 4.688957 17.748983 -0.043545 -7.588463 -12.450446 35.011809 2.810993 16.580203 -61.496946 36.558176 -21.675516 50.677674 -0.065869 -0.040044 62.593483 -40.893312 -11.976489 31.428694 13.248364 -17.990035 -29.38829 -133.940021 -4.278515 155.670265 -1.441807 14.193234 -136.222797 172.425711 -4.387203 140.241724 15.023034 -18.449466 -17.533705 -142.605568 -22.396852 81.357456 108.23219 -64.564116 33.272669 1.204472 -18.172431 67.880002 -172.882865 -5.733978 144.892375 26.956778 79.31237 -30.634076 -55.650481 32.410952 25.930656 -135.959867 -13.944533 112.900734 103.386309 74.615433 -58.053562 -174.799692 -17.595507 -90.2206 171.554913 -42.195255 -135.813349 27.598585 -10.128365 13.561445 179.98936 43.420706 88.390695 -3.215408 0.156044 5.86957 172.463927 -23.816798 -69.799203 134.593574 -24.46993 -61.517572 -13.899999 -17.589461 -5.488512 122.62038 -77.423731 93.868592 -148.989064 -63.853446 -163.154158 90.385422 -55.749889 145.69761 -5.66238 16.226171 -14.065213 58.67557 51.159738 -13.5513 29.723816 -62.100959 18.048729 -175.14569 21.344649 -179.928411 -7.169458 -0.58738 -20.94114 -2.13669 0.244394 158.230702 41.427495 -47.50297 130.04437 30.380774 33.668208 61.46427 13.774995 -11.347319 30.659803 -19.386472 -51.493408 -146.090024 -63.973911 -34.889058 -43.894172 170.44518 40.425949 -158.007657
